<svg width="25" height="25" viewBox="0 0 25 25" fill="none" xmlns="http://www.w3.org/2000/svg">
<path d="M12.4998 0C5.60684 0 -0.000244141 5.60762 -0.000244141 12.5C-0.000244141 19.3924 5.60684 25 12.4998 25C19.3927 25 24.9998 19.3924 24.9998 12.5C24.9998 5.60762 19.3927 0 12.4998 0ZM12.4998 23.9583C6.18159 23.9583 1.04141 18.8182 1.04141 12.5C1.04141 6.18184 6.18159 1.04165 12.4998 1.04165C18.8179 1.04165 23.9581 6.18184 23.9581 12.5C23.9581 18.8182 18.8179 23.9583 12.4998 23.9583Z" fill="#FEFEFE"/>
<path d="M17.469 12.062L10.1774 7.37451C10.0177 7.27026 9.81118 7.26465 9.64639 7.35518C9.47852 7.44673 9.37476 7.62173 9.37476 7.81245V17.1874C9.37476 17.3782 9.47852 17.5532 9.64639 17.6447C9.72368 17.687 9.81016 17.7083 9.89561 17.7083C9.99326 17.7083 10.0919 17.6808 10.1774 17.6254L17.469 12.9379C17.6176 12.8423 17.7081 12.677 17.7081 12.5C17.7081 12.3229 17.6176 12.1577 17.469 12.062ZM10.4164 16.2332V8.76665L16.2239 12.5L10.4164 16.2332Z" fill="#FEFEFE"/>
</svg>
